<svg xmlns="http://www.w3.org/2000/svg" viewBox="0 0 1216.87 329.38"><g id="Camada_2" data-name="Camada 2"><g id="Camada_1-2" data-name="Camada 1"><path d="M851.68,329.38c-.18-.62-.75-.47-1.18-.57C835.15,325.19,826,315.37,822,300.4a68.57,68.57,0,0,1-2-18q0-90.82,0-181.63c0-1.2,0-2.39.07-3.59.31-5.15,4.48-8.17,9.51-6.92a17.43,17.43,0,0,1,4.13,1.86c12,6.61,24.75,7.91,38,4.65a32,32,0,0,0,10.52-5c5.1-3.51,11.42-.82,12.26,5.29a57.16,57.16,0,0,1,.24,7.64q0,88.05,0,176.12c0,8.9-.63,17.73-4.3,26-5.33,12-14.36,19.64-27.47,22.12-.32.06-.62.09-.74.45Z" style="fill:#434143"/><path d="M1216.87,297.31l-.2,0-.19,0c-1.25-1.24-.86-2.83-.86-4.3q0-31.53,0-63.07,0-27.24,0-54.47c0-1.39-.35-2.91.85-4.06a1.07,1.07,0,0,1,.4,0Z" style="fill:#e6e6e6"/><path d="M233.73,69.81A137.42,137.42,0,0,1,243,58.16Q271.7,26.93,313.94,23c19.45-1.81,38.47.15,56.39,8.43C394.94,42.79,410.85,62,419.85,87.26c5,14.14,7.52,28.78,8.68,43.69.78,10.11.77,20.24.77,30.37q0,58.52,0,117c0,5.25.47,10.5-.68,15.73a37,37,0,0,1-72.6-2.74,67.5,67.5,0,0,1-.38-9.31c0-40.28,0-80.57-.08-120.85,0-12.32-1.34-24.53-5.73-36.17-5.62-14.89-15.43-25.48-31.58-28.68-28-5.55-52.1,8.63-61.34,35.64-4.28,12.53-5.66,25.48-5.68,38.6q-.09,55.88,0,111.76c0,6.1-.39,12.07-2.78,17.8a36.93,36.93,0,0,1-71.06-14.18c.26-43.24.33-86.47,0-129.7a91.62,91.62,0,0,0-6.22-33.42c-7-17.69-20.82-27-39.79-27.58-28-.86-46.14,16.37-53.17,40.42-3.31,11.35-4.36,23-4.47,34.73q-.47,49.77-.12,99.55c0,7,.88,14.05-.09,21-2.55,18.33-17.18,31.32-35.61,31.89A36.69,36.69,0,0,1,.05,286.36q0-77.3,0-154.59Q0,96,.1,60.21A83.64,83.64,0,0,1,1.39,44.5c1.91-9.78,6.45-14.27,16.3-16.22,8.77-1.73,17.64-1.52,26.5-1.54,34.58-.09,69.16-.19,103.74-.09a292.77,292.77,0,0,1,29.89,1.45c13.39,1.42,24.58,7.41,34.67,15.89A95.7,95.7,0,0,1,233.73,69.81Z" style="fill:#de0024"/><path d="M705.14,24.4c14.05,0,28.11-.09,42.17,0,10.08.09,19.73,2.16,28,8.31,11.36,8.48,16.72,19.92,14.42,34s-11.21,23.42-24.46,28.5c-7.81,3-16,3.34-24.3,3.18-17.72-.36-35.43-1.63-53.17-1.17-14.08.36-28.1,1.51-41.57,5.88-28.91,9.38-45.48,29.55-49.53,59.34-5.06,37.12,15.76,65.38,42.88,77.52,10,4.48,20.63,6,31.5,6,20.69,0,41.38-.07,62.06,0,6.7,0,13.42-.26,20.11.52,12.09,1.42,22.4,6.08,29.82,16.09C796,280,789.49,304.89,769.44,315c-7.28,3.68-15.12,5.06-23.16,5.11-20.76.12-41.53.73-62.29.13-22.9-.67-45.51-3.13-67.27-10.91-46.13-16.48-82.36-58.54-91.42-106.66-6.26-33.22-3.64-65.63,12.11-95.9,19.89-38.26,50-65,92-77.22a140.51,140.51,0,0,1,40-5.21c11.9,0,23.81,0,35.71,0Z" style="fill:#434143"/><path d="M896.52,39.24A39.2,39.2,0,1,1,857,0,39.22,39.22,0,0,1,896.52,39.24Z" style="fill:#b2d707"/><path d="M430.33,318.27c2.76-7.86,5.42-15.42,8.07-23Q485.71,160.39,533,25.46c.85-2.43,1.9-3.4,4.5-3.18a57.68,57.68,0,0,0,8.62,0c2.28-.13,2.43.58,1.74,2.54q-12.19,34.41-24.24,68.89-38.9,110.91-77.74,221.85c-.73,2.07-1.56,2.88-3.82,2.75C438.27,318.11,434.51,318.27,430.33,318.27Z" style="fill:#434143"/><path d="M48.06,114.47a32.07,32.07,0,1,1,32-32.16A32.11,32.11,0,0,1,48.06,114.47Z" style="fill:#fefefe"/><path d="M1216.39,295.66V173.08c0-.55.06-1.11.08-1.66A155.6,155.6,0,0,0,1211.3,132c-7.12-26.21-21.13-48.29-40.44-67.16-35.76-34.95-78.71-47.2-127.63-39.62C1016.45,29.32,993,41,972.9,59.05c-44,39.6-59.64,88.81-48.16,146.48,11.2,56.23,66.11,115,142.18,114.9q61.21,0,122.43,0a50.78,50.78,0,0,0,8.34-.65c9.81-1.62,15.9-7,18-16.1.47-2.08.56-4.25.83-6.39C1216.45,296.77,1216.39,296.21,1216.39,295.66ZM1069.3,246.31a74.37,74.37,0,0,1-74.2-74.62c0-38.19,31.4-74.87,74.15-74.31,39.63-.67,74.19,34.14,74.27,74.26C1143.61,214.9,1107,246.32,1069.3,246.31Z" style="fill:#434143"/><path d="M1172.46,308.31a31.82,31.82,0,1,1,31.82-31.85A31.95,31.95,0,0,1,1172.46,308.31Z" style="fill:#b2d707"/></g></g></svg>