<svg xmlns="http://www.w3.org/2000/svg" viewBox="0 0 383.26 408.8"><g id="Camada_2" data-name="Camada 2"><g id="Camada_1-2" data-name="Camada 1"><path d="M21.57,408.8C13.65,406.54,6.63,402.85,3.13,395a30.88,30.88,0,0,1-3-11.82C-.08,349.75,0,316.37,0,283a16.74,16.74,0,0,1,.19-1.71h50.7v76.16H332.08V281.27h51.18v96.29c0,18.44-4.41,24.83-21.56,31.24Z"/><path d="M153.31,178.85V15.72C153.31,4.59,157.9,0,169.06,0h45.09C225.34,0,230,4.58,230,15.66V178.85h4.55c14.76,0,29.52.07,44.29,0,6.1,0,11.1,1.78,13.77,7.55s.67,10.75-3.32,15.31q-43.4,49.5-86.72,99.08c-6.87,7.84-14.9,7.86-21.74.05Q137.4,251.3,94.07,201.73c-4-4.55-6.07-9.48-3.4-15.3s7.63-7.65,13.74-7.61C120.5,178.92,136.59,178.85,153.31,178.85Z"/></g></g></svg>