<svg xmlns="http://www.w3.org/2000/svg" viewBox="0 0 1158.48 278.67">
	<g id="Camada_2" data-name="Camada 2">
		<g id="Camada_1-2" data-name="Camada 1">
			<path d="M810.71,278.63q-404.33,0-808.65,0c-1.74,0-2.07-.39-2.06-2.07.08-13.32.05-26.64.05-40a.44.44,0,0,1,.61.15A6.81,6.81,0,0,1,1,240.36c-.57,14.23,8.8,25.55,21.33,29.81s24.73,2.92,35.73-5A28.15,28.15,0,0,0,68.4,251.59a30.46,30.46,0,0,0,1.82-11.25c-.76-28.1-.51-56.21-.3-84.31.08-10-.37-20.05,1.52-30s5-19.41,11.51-27.41c8.26-10.21,19.13-15.92,32.13-17.55,8.43-1.06,16.83-.84,25,1.77A36.52,36.52,0,0,1,162,100.77c4.47,8.21,6.53,17,7.34,26.17.3,3.43.32,6.84.32,10.27q0,51.85,0,103.71a37,37,0,0,0,.38,6.22,2.9,2.9,0,0,0,.66,1.84,29.17,29.17,0,0,0,11.7,16.65,36.77,36.77,0,0,0,20.79,6.79,37.24,37.24,0,0,0,23-6.75,31.06,31.06,0,0,0,9.66-11.16c2.35-4.44,3-9.11,3-14q-.06-49.12,0-98.25a76.28,76.28,0,0,1,1.36-15.43c.2-.59.71-1.07.66-1.76A53.21,53.21,0,0,1,251,99.85,45.77,45.77,0,0,1,277.65,82.4C289.27,79.69,300.79,79.64,312,84a36.89,36.89,0,0,1,18.09,15.16,51.8,51.8,0,0,1,7.69,22.69,3.79,3.79,0,0,0,.65,2.08,64.94,64.94,0,0,1,1,12c.05,34.84.13,69.69,0,104.53-.06,13.38,6.22,22.75,17.92,28.16,14.25,6.58,28.11,5.18,40.6-4.73a26.45,26.45,0,0,0,9.54-15.05,33.18,33.18,0,0,0,1.16-9.75q0-58.17,0-116.32c-.16-1.72.44-3.51-.48-5.16-.76-3.56-.77-7.2-1.08-10.81A117.72,117.72,0,0,0,402,82a88.85,88.85,0,0,0-10.44-22.63,85.16,85.16,0,0,0-14.77-16.72A83.58,83.58,0,0,0,352.83,27.9a104.93,104.93,0,0,0-26.58-6.68,133.38,133.38,0,0,0-23.8-.71A113.31,113.31,0,0,0,267,28a108.41,108.41,0,0,0-25.72,14.23,79.05,79.05,0,0,0-12.87,11.86c-1.31,1.53-2.74,2.95-3.95,4.58s-2.05,1.39-3.16-.21a92.7,92.7,0,0,0-6.94-8.89,84,84,0,0,0-19.7-16.21c-8.81-5.33-18.36-7.87-28.54-8.55-6-.4-12-.55-17.94-.81-11.58-.51-23.17-.57-34.74-.28-28.23.71-56.45,0-84.67.42-6.49.09-13.11.43-19.09,3.61a12.48,12.48,0,0,0-6.15,6.89C1.43,40.43,1.07,46.43,1,52.5c0,1.86.36,3.77-.36,5.59a.41.41,0,0,1-.59.12q0-28.37,0-56.72C0,.31.23-.19,1.46.07a3,3,0,0,0,.6,0q577.22,0,1154.42,0c1.57,0,2,.22,2,1.93q-.09,137.45,0,274.89c0,1.6-.45,1.81-1.9,1.81q-167.67-.06-335.34,0c.24-1.26,1.37-1.14,2.21-1.33A33.32,33.32,0,0,0,834.29,273c5.39-3.48,9.86-7.73,12.71-13.69,2.26-4.74,3.06-9.67,3.58-14.78.56-5.58.33-11.16.34-16.73q0-70.34,0-140.66a23.94,23.94,0,0,0-.21-4.23,6.69,6.69,0,0,0-8.18-5.21,12.15,12.15,0,0,0-3.29,1.52c-5.44,3.27-11.4,4.61-17.68,5.06a56.42,56.42,0,0,1-20.16-2,88,88,0,0,1-9.36-3.77,9.65,9.65,0,0,0-6.68-.74,5.14,5.14,0,0,0-3.86,4.45,19,19,0,0,0-.1,3q0,78.3,0,156.6A40,40,0,0,0,784,257.06c3.91,9.54,11,15.95,20.8,19.22,1.4.46,2.84.82,4.27,1.21C809.71,277.66,810.61,277.6,810.71,278.63Z" style="fill:#fdfdfd"/>
			<path d="M810.71,278.63c-2.82-1.17-5.9-1.44-8.73-2.69a39.2,39.2,0,0,1-9-5.47c-8.58-7-11.62-16.44-12.11-27-.09-1.81-.08-3.63-.08-5.45V86.82c0-1.07,0-2.15,0-3.22-.15-5.78,4.42-7.45,8.89-6.64,2.08.38,3.85,1.54,5.75,2.36a52.55,52.55,0,0,0,39.12,1.59,20.61,20.61,0,0,0,5.17-2.66c2.86-2,5.85-1.63,8.76-.14,2.41,1.23,2.9,3.55,3,6,.06,1.81,0,3.63,0,5.45q0,75.27,0,150.56a49.45,49.45,0,0,1-1.79,14.16,32.42,32.42,0,0,1-15.95,19.79A36.84,36.84,0,0,1,822,278.19c-.31.05-.69,0-.78.44H814a3.11,3.11,0,0,0-2.43,0Z" style="fill:#434143"/>
			<path d="M.39,236.66H.22l-.17,0V147.83a.5.5,0,0,1,.67.24,6.11,6.11,0,0,1,.39,3q0,41.21,0,82.4C1.1,234.54,1.35,235.74.39,236.66Z" style="fill:#f8d1d7"/>
			<path d="M.05,138.54V84a.5.5,0,0,1,.67.24,6.21,6.21,0,0,1,.38,3q0,24,0,48.11a6.11,6.11,0,0,1-.38,3A.5.5,0,0,1,.05,138.54Z" style="fill:#f8d1d7"/>
			<path d="M.38,84H.05V58.21a.69.69,0,0,1,.32,0c.83.7.73,1.68.73,2.6q0,10.32,0,20.63C1.1,82.35,1.2,83.33.38,84Z" style="fill:#fae1e5"/>
			<path d="M.05,138.54H.39A1.56,1.56,0,0,1,1,139.93c-.15,2.64.77,5.37-.64,7.9H.05Z" style="fill:#f6c2ca"/>
			<path d="M811.52,278.63a1.79,1.79,0,0,1,2.43,0Z" style="fill:#787678"/>
			<path d="M.38,147.83v-9.29L.45,88.66c0-1.54,0-3.08-.07-4.62V58.2c.15-5.92-.26-11.9,1-17.7.83-3.93,1.58-8,4.94-11.07,3.06-2.73,6.67-3.91,10.51-4.65,8.38-1.61,16.89-1.39,25.37-1.41,33.09-.07,66.17-.18,99.25-.06,10.7,0,21.43.14,32,1.74A58,58,0,0,1,193.3,31.9a84.2,84.2,0,0,1,16.3,11.83,59.33,59.33,0,0,1,8,8.66c1.51,2.11,3.39,4,4.53,6.33.55,1.16,1.21.73,1.76,0a59.7,59.7,0,0,1,3.82-4.6,97.3,97.3,0,0,1,28.61-21.85c20.25-10.45,41.84-13.68,64.35-12.1A105.76,105.76,0,0,1,352.18,27a88.86,88.86,0,0,1,16.5,8.65,86.59,86.59,0,0,1,16,13.77,67.66,67.66,0,0,1,8.42,11.36A109.63,109.63,0,0,1,401.57,79c1.56,4.3,2.33,8.74,3.58,13.08,2.39,8.32,2.61,16.91,3.32,25.43.7,1.63.19,3.33.35,5q0,57,0,114a5.44,5.44,0,0,0,.32,3,27.91,27.91,0,0,1-2.88,14.79,31.6,31.6,0,0,1-15.58,15.09,38.93,38.93,0,0,1-27.9,2.17,34,34,0,0,1-13.91-7.71c-6.55-6-10.05-13.18-10-22.16.06-33.1,0-66.19,0-99.29a180.2,180.2,0,0,0-.85-18.73c-.46-.48-.24-1.22-.68-1.71a57.17,57.17,0,0,0-2.67-12.38,45.66,45.66,0,0,0-7.21-13.44c-6.83-8.43-15.84-13.14-26.59-14.47a61,61,0,0,0-27.49,2.54,44.45,44.45,0,0,0-13.31,7.29A48.56,48.56,0,0,0,245,111.93a77.78,77.78,0,0,0-3.62,13.26c-.34.38-.4.91-.68,1.32-1.35,9.42-1.29,18.9-1.28,28.39,0,29.11,0,58.23,0,87.35a26.28,26.28,0,0,1-4.81,15.63c-7.6,10.64-18.3,15.39-31.27,15.23a37,37,0,0,1-23.49-8.61,25.78,25.78,0,0,1-4.9-5.25c-2.22-3.2-4.17-6.5-4.76-10.44-.32-.39-.36-.93-.71-1.29-.63-3.48-.33-7-.33-10.47q0-51.65-.09-103.31A76.48,76.48,0,0,0,167,115.15C165.41,109,163.3,103,159.64,97.8c-6.2-8.88-14.87-14-25.49-15.78a60.86,60.86,0,0,0-28.53,1.73,44.13,44.13,0,0,0-13.49,7,47.67,47.67,0,0,0-14.85,18.43A92.66,92.66,0,0,0,74,118.29c-3.87,11.5-3.29,23.42-3.39,35.25-.24,29.46-.39,58.92.22,88.37a26.28,26.28,0,0,1-4.36,15.18c-6.36,9.67-15.7,14.8-27.21,15.88a38,38,0,0,1-23.42-5.13,31.4,31.4,0,0,1-9.33-8.36,29.12,29.12,0,0,1-6-19.8c.06-1,0-2-.08-3s.06-1.75.06-2.62V150.25C.45,149.44.4,148.64.38,147.83Z" style="fill:#de0024"/>
			<path d="M1155.92,124a151,151,0,0,1,1.75,25.32q-.06,50.14,0,100.29a36.68,36.68,0,0,1-.35,5.82c-1.2,7.32-5.68,11.67-12.49,13.92a40.81,40.81,0,0,1-13,1.72q-58,0-116,0a152.85,152.85,0,0,1-53.68-9.56A134.19,134.19,0,0,1,942.25,252a145.88,145.88,0,0,1-21.72-15.36,142.61,142.61,0,0,1-10.73-10.13,121.2,121.2,0,0,1-14.44-18,126.91,126.91,0,0,1-7.11-12.4,123.15,123.15,0,0,1-7.69-20.7c-1.86-6.43-2.46-13-3.21-19.54a2.61,2.61,0,0,1-.32-1.62c0-1,0-2,0-2.92-.07-.79.21-1.63-.33-2.35v-7.24c.65-1.23.2-2.56.33-3.83.08-.9-.2-1.83.35-2.66a101.72,101.72,0,0,1,2.19-15.56,100.14,100.14,0,0,1,3.93-13.2,135.52,135.52,0,0,1,7-15.37,115.58,115.58,0,0,1,14.23-20.35,137.37,137.37,0,0,1,10.63-11.09A151.65,151.65,0,0,1,945.15,38a140.12,140.12,0,0,1,45.22-15.55,167.6,167.6,0,0,1,49.9-.64A142.68,142.68,0,0,1,1077.42,32a130.76,130.76,0,0,1,19.8,10.6,154,154,0,0,1,18.14,13.8A137.28,137.28,0,0,1,1129.78,71a124.8,124.8,0,0,1,10.67,14.36,130.56,130.56,0,0,1,7.43,13.84,92.07,92.07,0,0,1,7.29,22.73c0,.27,0,.54.06.81C1155.58,123.12,1155.6,123.66,1155.92,124Z" style="fill:#434143"/>
			<path d="M497.83,159.44a152.34,152.34,0,0,1,0-25.72c.43-.51.26-1.24.65-1.77a73.11,73.11,0,0,1,2.94-16.84,103.14,103.14,0,0,1,3.42-10.42,133.41,133.41,0,0,1,7.3-15,122.37,122.37,0,0,1,10.41-15,137.24,137.24,0,0,1,14-15,147.48,147.48,0,0,1,25.13-18.77A140.35,140.35,0,0,1,613.48,23a179.64,179.64,0,0,1,25.17-1.65c24.53,0,49.06,0,73.59.1,9.07,0,17.76,2,25.59,6.76a30.85,30.85,0,0,1,8.44,7.59,30.06,30.06,0,0,1,5.15,10.49,22.1,22.1,0,0,1,.64,10.06,29.73,29.73,0,0,1-10.89,18c-10.5,8.54-23,9.68-35.8,9.47-17.78-.3-35.55-1.48-53.35-.91-12.2.39-24.33,1.5-36.16,4.7-8.58,2.31-16.73,5.6-23.93,11A68.61,68.61,0,0,0,581,109.1a56.74,56.74,0,0,0-10.88,19.51c-3.6,11.08-3.33,22.2-.7,33.3a47.11,47.11,0,0,0,6.9,15.37,70.17,70.17,0,0,0,45.8,29.65,92.33,92.33,0,0,0,16.68,1.36c19.82,0,39.63,0,59.44,0,6.19,0,12.39-.22,18.58.41,7.57.78,14.84,2.6,21.2,6.9a33.81,33.81,0,0,1,9.62,9.77c2.21,3.43,3.1,7.12,3.8,11A22.62,22.62,0,0,1,749,251.3c-4.74,8.84-12.34,14.46-22,17.25-8.41,2.42-17,2.36-25.64,2.37-17.65,0-35.31.52-53,0-17-.54-33.86-2.09-50.41-6.1A141.36,141.36,0,0,1,567,253.55a129.9,129.9,0,0,1-21.65-13.64,142.88,142.88,0,0,1-14-12.48,121.45,121.45,0,0,1-14.76-18A130.34,130.34,0,0,1,509.72,198a122.35,122.35,0,0,1-7.54-18.6c-1.95-5.84-2.71-11.83-3.66-17.83C498,161,498.36,160.05,497.83,159.44Z" style="fill:#434143"/>
			<path d="M853.27,33.84c.48,5.91-1.42,11.22-4.36,15.91-6,9.63-15.06,15.1-26.28,16.9a40,40,0,0,1-24.88-3.74,34.91,34.91,0,0,1-13-11c-5.45-7.66-7.37-16-5.09-25a31.7,31.7,0,0,1,12.14-18A39.22,39.22,0,0,1,811.11,1.1a40.83,40.83,0,0,1,21.48,3.11,38.17,38.17,0,0,1,16.16,13.57,4,4,0,0,1,.31.52C851.43,23.27,853.76,28.24,853.27,33.84Z" style="fill:#b2d707"/>
			<path d="M409.86,269.25c2.25-5.59,4.08-11,6.55-16.11a5.62,5.62,0,0,0,.19-.58c2-5.23,3.85-10.52,6-15.7,2.49-6.08,4.79-12.24,7.3-18.31,1.05-2.51,1.91-5.08,3-7.59,2.78-6.61,5.29-13.33,7.91-20q3.48-8.89,7-17.77c2.4-6,4.75-12,7.17-17.94,1.18-2.89,2.12-5.87,3.36-8.72,2.71-6.22,5-12.59,7.5-18.89,2.26-5.66,4.48-11.34,6.75-17,2.48-6.16,4.86-12.36,7.33-18.52s4.85-12.36,7.31-18.52c2.28-5.73,4.5-11.49,6.82-17.2,2.5-6.15,4.89-12.34,7.32-18.52,2.21-5.61,4.66-11.13,6.62-16.84a1.68,1.68,0,0,1,1.85-1.39c3.63.07,7.27.08,10.91,0,1.53,0,1.46.56,1,1.69-2.55,6.42-5,12.86-7.58,19.28q-4.14,10.49-8.24,21-3.5,9-7.08,18c-2.37,5.91-4.67,11.85-7.05,17.76s-4.75,12-7.1,18c-2.48,6.3-5,12.6-7.46,18.89-2.26,5.67-4.47,11.35-6.76,17-2.5,6.22-4.91,12.47-7.38,18.71q-3.6,9.06-7.17,18.14c-2.31,5.86-4.61,11.73-7,17.57-2.44,6-4.76,12.11-7.17,18.15q-3.72,9.35-7.39,18.71-3.35,8.51-6.79,17c-1.16,2.89-2.3,5.8-3.36,8.73a1.43,1.43,0,0,1-1.62,1.11C418.49,269.23,414.38,269.25,409.86,269.25Z" style="fill:#434143"/>
			<path d="M409.15,239.49c-.57-.11-.72-.51-.73-1,0-.73,0-1.47,0-2.21q0-56.16,0-112.33c0-.53.07-1.07.11-1.6.29-.15.54-.16.69.18q0,32.28,0,64.56,0,25.92.05,51.85A4.17,4.17,0,0,1,409.15,239.49Z" style="fill:#e74660"/>
			<path d="M409.17,122.49l-.69-.18c0-1.59,0-3.18,0-4.77,1.39.53.59,1.71.74,2.58A12.54,12.54,0,0,1,409.17,122.49Z" style="fill:#fbe5e8"/>
			<path d="M877.37,138.06c-.17,1.25.75,2.7-.68,3.73,0-1.19,0-2.38,0-3.56C876.84,137.9,877.09,137.9,877.37,138.06Z" style="fill:#615f61"/>
			<path d="M877.39,151.12c0,1.07,0,2.14,0,3.21-.27.19-.51.2-.69-.12V151C877,150.82,877.19,150.82,877.39,151.12Z" style="fill:#898789"/>
			<path d="M877.37,138.06l-.69.17c0-1-.63-2.21.69-2.93Z" style="fill:#d2d1d2"/>
			<path d="M497.83,159.44c1.1.43.64,1.36.69,2.13C497.33,161.17,497.81,160.23,497.83,159.44Z" style="fill:#d2d1d2"/>
			<path d="M877.39,151.12l-.71-.09v-2C877.91,149.4,877.28,150.38,877.39,151.12Z" style="fill:#514f51"/>
			<path d="M337.33,121.94c1,.25.73,1,.68,1.71C337.07,123.36,337.24,122.64,337.33,121.94Z" style="fill:#ed7588"/>
			<path d="M498.5,132c.07.7.42,1.49-.65,1.77C497.85,133.05,497.5,132.25,498.5,132Z" style="fill:#636163"/>
			<path d="M876.68,154.21l.69.12,0,1.59C876.29,155.68,876.65,154.88,876.68,154.21Z" style="fill:#d5d5d5"/>
			<path d="M240.7,126.51c-.18-.64-.08-1.15.68-1.32C241.44,125.78,241.57,126.4,240.7,126.51Z" style="fill:#ea6379"/>
			<path d="M1155.92,124c-.83-.1-.81-.67-.69-1.28A1,1,0,0,1,1155.92,124Z" style="fill:#787778"/>
			<path d="M169.5,247.52c.72.16.88.64.71,1.29C169.41,248.68,169.39,248.14,169.5,247.52Z" style="fill:#eb667c"/>
			<path d="M44.22,97.36a31.19,31.19,0,0,1-20.44-8.68,29.13,29.13,0,0,1-7.14-11.31c-2.7-7.29-1.05-14,2.69-20.09C24.24,49.34,31.91,45,41.2,43.63a33.32,33.32,0,0,1,21.92,4.2,27.34,27.34,0,0,1,8.55,7.7c5.49,7.62,6.25,15.91,2.94,24.39C71.8,87.13,66.11,91.85,59,94.83,54.9,96.56,50.56,97.4,44.22,97.36Z" style="fill:#fefefe"/>
			<path d="M948.54,134.48a45,45,0,0,1,6.35-17.59A68,68,0,0,1,976.16,94.8c13.61-9,28.81-12.35,45-11.75a73.64,73.64,0,0,1,27.7,6.33,68.47,68.47,0,0,1,12.44,7.3A84.08,84.08,0,0,1,1077.19,112a41.61,41.61,0,0,1,3.77,5.85c3.28,5.94,5.75,12.21,6.37,19.06.44.49.25,1.23.68,1.72.27,4.23.68,8.49,0,12.69-.82,5.26-1.55,10.6-3.58,15.57a56.26,56.26,0,0,1-7,12.65A72.71,72.71,0,0,1,1062,194.44,71.86,71.86,0,0,1,1021,208.36,80.5,80.5,0,0,1,990.6,204a68.38,68.38,0,0,1-16.17-8.37,80.17,80.17,0,0,1-15.78-14.83,38,38,0,0,1-3.7-5.66c-3.15-5.6-5.68-11.49-6.41-18-.34-.38-.39-.91-.68-1.31a81.36,81.36,0,0,1,0-20C948.14,135.39,948.2,134.86,948.54,134.48Z" style="fill:#fefefe"/>
			<path d="M1115.83,260.93c-9.51-.45-17.62-3.53-23.89-10.85-6.1-7.13-7.8-15.27-4.8-24s9.58-14.35,18.29-17.24a32.13,32.13,0,0,1,24.7,1.53,27.72,27.72,0,0,1,10.17,7.93,25.17,25.17,0,0,1,5.73,13.77,23.8,23.8,0,0,1-5.5,17.26C1134.18,257.4,1125.61,260.53,1115.83,260.93Z" style="fill:#b2d707"/>
			<path d="M1088,138.62c-1-.28-.71-1.05-.68-1.72C1088.35,137.16,1088.11,137.92,1088,138.62Z" style="fill:#848384"/>
			<path d="M948.54,134.48c.07.59.18,1.21-.68,1.32C947.68,135.15,947.79,134.65,948.54,134.48Z" style="fill:#8b898b"/>
			<path d="M947.86,155.83c.85.11.76.72.68,1.31C947.77,157,947.68,156.47,947.86,155.83Z" style="fill:#8e8e8e"/>
		</g>
	</g>
</svg>