<svg xmlns="http://www.w3.org/2000/svg" viewBox="0 0 276.79 383.18"><title>metragemAtivo 1x-close</title><g id="Camada_2" data-name="Camada 2"><g id="Camada_1-2" data-name="Camada 1"><path d="M264.82,0c3.35,1.35,6.6,2.82,8.87,5.84,4.2,5.61,4.17,12.28-.31,18.71Q254,52.29,234.65,80q-37.89,54.19-75.83,108.33c-1.7,2.41-1.84,3.94-.08,6.45q57.16,81.48,114.15,163.11c5.77,8.27,5,17-2,22.22-7.18,5.34-16.32,3.68-21.82-4.14q-18-25.51-35.77-51.11-36.37-52.05-72.7-104.13c-1.86-2.67-2.61-2.53-4.39,0Q82.34,298,28.39,375.09c-4.07,5.83-9.22,9.19-16.45,7.68C1,380.49-3.49,368.52,3,359.09c9.9-14.35,20-28.6,29.94-42.88Q75.46,255.45,118,194.73c1.78-2.52,1.57-4-.11-6.43C80.09,134.37,42.52,80.27,4.48,26.5-2.78,16.24-.91,4.27,11.91,0h6c5,.44,8.2,3.24,11,7.25Q74.23,72,119.47,136.82c5.57,8,11.08,16,16.66,23.92,2,2.84,2.5,2.85,4.47,0,18.35-26.55,37-52.9,55.42-79.36q26.4-37.86,52.9-75.65A13,13,0,0,1,258.83,0Z"/></g></g></svg>